HIERARCHY
ROOT root
{
	OFFSET	0	13.1	24.9
	CHANNELS 6  Xposition Yposition Zposition Xrotation Yrotation Zrotation
	JOINT spine_1
	{
		OFFSET	0	9.99999	0
		CHANNELS 3  Xrotation Yrotation Zrotation
		JOINT spine_2
		{
			OFFSET	0	112	-10
			CHANNELS 3  Xrotation Yrotation Zrotation
			JOINT spine_3
			{
				OFFSET	0	206.5	19.3
				CHANNELS 3  Xrotation Yrotation Zrotation
				JOINT spine_4
				{
					OFFSET	0	110.4	14.6
					CHANNELS 3  Xrotation Yrotation Zrotation
					JOINT neck_1
					{
						OFFSET	0	71.8	-50.3
						CHANNELS 3  Xrotation Yrotation Zrotation
						JOINT neck_2
						{
							OFFSET	0	86.2	-25.8
							CHANNELS 3  Xrotation Yrotation Zrotation
							JOINT head_ee
							{
								OFFSET	0	179.8	-8.7
								CHANNELS 3  Xrotation Yrotation Zrotation
								End Site
								{
									OFFSET	1	0	0
								}
							}
						}
					}
					JOINT left_clavicle
					{
						OFFSET	-43.2	22.4	-70.8
						CHANNELS 3  Xrotation Yrotation Zrotation
						JOINT left_shoulder
						{
							OFFSET	-93.9	-5.79999	48.7
							CHANNELS 3  Xrotation Yrotation Zrotation
							JOINT left_elbow
							{
								OFFSET	-291.4	-30.8	15.2
								CHANNELS 3  Xrotation Yrotation Zrotation
								JOINT left_lowarm_twist
								{
									OFFSET	-110.7	-3.89999	13.6
									CHANNELS 3  Xrotation Yrotation Zrotation
									JOINT left_hand
									{
										OFFSET	-110.7	-3.89999	13.6
										CHANNELS 3  Xrotation Yrotation Zrotation
										JOINT left_ee
										{
											OFFSET	-80.8	-5.10001	12.1
											CHANNELS 3  Xrotation Yrotation Zrotation
											End Site
											{
												OFFSET	1	0	0
											}
										}
									}
								}
							}
						}
					}
					JOINT right_clavicle
					{
						OFFSET	43.2	22.4	-70.8
						CHANNELS 3  Xrotation Yrotation Zrotation
						JOINT right_shoulder
						{
							OFFSET	93.9	-5.79999	48.7
							CHANNELS 3  Xrotation Yrotation Zrotation
							JOINT right_elbow
							{
								OFFSET	291.4	-30.8	15.2
								CHANNELS 3  Xrotation Yrotation Zrotation
								JOINT right_lowarm_twist
								{
									OFFSET	110.7	-3.89999	13.6
									CHANNELS 3  Xrotation Yrotation Zrotation
									JOINT right_hand
									{
										OFFSET	110.7	-3.89999	13.6
										CHANNELS 3  Xrotation Yrotation Zrotation
										JOINT right_ee
										{
											OFFSET	80.8	-5.10001	12.1
											CHANNELS 3  Xrotation Yrotation Zrotation
											End Site
											{
												OFFSET	1	0	0
											}
										}
									}
								}
							}
						}
					}
				}
			}
		}
	}
	JOINT left_hip
	{
		OFFSET	-82.8	-127.5	0.300001
		CHANNELS 3  Xrotation Yrotation Zrotation
		JOINT left_knee
		{
			OFFSET	-28.2	-396.7	2.2
			CHANNELS 3  Xrotation Yrotation Zrotation
			JOINT left_ankle
			{
				OFFSET	-11.7	-411.3	35.4
				CHANNELS 3  Xrotation Yrotation Zrotation
				JOINT left_toes
				{
					OFFSET	0	-60	-88.6
					CHANNELS 3  Xrotation Yrotation Zrotation
					JOINT left_foot_ee
					{
						OFFSET	-22.5	-16.5	-42.2
						CHANNELS 3  Xrotation Yrotation Zrotation
						End Site
						{
							OFFSET	1	0	0
						}
					}
				}
			}
		}
	}
	JOINT right_hip
	{
		OFFSET	82.8	-127.5	0.300001
		CHANNELS 3  Xrotation Yrotation Zrotation
		JOINT right_knee
		{
			OFFSET	28.2	-396.7	2.2
			CHANNELS 3  Xrotation Yrotation Zrotation
			JOINT right_ankle
			{
				OFFSET	11.7	-411.3	35.4
				CHANNELS 3  Xrotation Yrotation Zrotation
				JOINT right_toes
				{
					OFFSET	0	-60	-88.6
					CHANNELS 3  Xrotation Yrotation Zrotation
					JOINT right_foot_ee
					{
						OFFSET	22.5	-16.5	-42.2
						CHANNELS 3  Xrotation Yrotation Zrotation
						End Site
						{
							OFFSET	1	0	0
						}
					}
				}
			}
		}
	}
}
MOTION
Frames: 10
Frame Time: 0.02
3177.02 653.055 -1669.29 -32.0488705091 9.02911842653 8.96482897896 10.2817 0.20023 0.100268 10.2817 0.193444 0.112806 10.2821 0.189701 0.118994 10.2821 0.206113 0.0875408 -6.21104 4.26185 0.894001 -6.20583 7.22977 1.71264 -0.0 0.0 -0.0 0.571313 21.6312 3.32521 -54.9295 -60.0717 53.966 0.371396 -10.4248 0.033881 -36.473 -2.58412 3.79601 6.92184 -18.2178 41.4626 -0.0 0.0 -0.0 11.4313 13.1094 -22.9601 90.8865 -65.838 -4.81761 0.188071 5.32271 -0.00874204 85.3835 4.4725 8.88366 -11.0163 -31.3062 56.2283 0.0 0.0 0.0 58.3259 -18.2187 -6.24025 -4.83218 0.168576 0.722216 11.2396 28.6865 -1.70225 -28.0105 0.0 0.0 -0.0 0.0 -0.0 25.5296 14.8592 2.46888 -21.99 -0.26669 -3.34332 39.8646 3.11226 4.89442 32.4371 -0.0 -0.0 0.0 0.0 0.0 
3163.05191201 649.343 -1695.15455766 -31.2869673362 8.47000845999 8.51295204745 10.271 0.124986 0.339757 10.2711 0.103113 0.347021 10.2716 0.09179 0.350186 10.2714 0.145943 0.331295 -6.26963 4.99007 -0.060814 -6.26211 9.28076 0.895039 -0.0 0.0 -0.0 0.208752 23.0353 2.95586 -57.8323 -61.5018 50.8186 0.373357 -10.4787 0.0342367 -37.6793 -2.70781 3.88905 6.79491 -17.642 40.8083 -0.0 0.0 -0.0 11.3004 12.4095 -22.6802 90.5289 -67.4335 -4.06718 0.191632 5.4229 -0.00907555 85.3716 4.47107 8.88312 -10.9842 -31.0204 56.5229 0.0 0.0 0.0 59.2425 -16.8644 -5.77709 -10.8098 0.291964 1.63081 16.4274 28.361 -2.43903 -27.6995 0.0 0.0 -0.0 0.0 -0.0 24.5078 16.7683 2.79336 -23.9045 -0.228888 -3.63467 40.0799 1.01688 4.89103 32.4933 -0.0 -0.0 0.0 0.0 0.0 
3147.52861553 645.73 -1720.93976056 -30.2692025605 7.64832588422 7.74684941768 10.3393 0.201385 0.471508 10.3394 0.170974 0.483366 10.3406 0.15578 0.488475 10.3403 0.230969 0.457743 -6.36641 4.97049 0.875926 -6.36079 8.56421 1.84002 -0.0 0.0 -0.0 -0.1528 22.3251 2.37572 -50.7981 -59.2297 57.7098 0.277906 -7.83861 0.0190398 -37.6033 -2.69995 3.88327 6.78182 -16.4496 41.5742 -0.0 0.0 -0.0 11.1306 13.4337 -22.2746 90.2279 -68.2649 -1.32244 0.196836 5.56925 -0.00957391 85.3025 4.46278 8.87998 -10.4454 -31.4803 49.9527 0.0 0.0 0.0 60.1738 -14.2099 -5.62595 -18.2805 0.31214 2.77605 25.6625 27.0517 -3.63537 -25.8115 0.0 0.0 -0.0 0.0 -0.0 23.8516 21.4708 2.79922 -28.1408 -0.110776 -4.27392 40.0856 1.12391 4.89247 37.7577 -0.0 -0.0 0.0 0.0 0.0 
3147.17901118 645.73 -1720.73856568 -30.2961000095 7.98388051064 7.94463243326 10.3393 0.201385 0.471508 10.3394 0.170974 0.483366 10.3406 0.15578 0.488475 10.3403 0.230969 0.457743 -6.36641 4.97049 0.875926 -6.36079 8.56421 1.84002 -0.0 0.0 -0.0 -0.1528 22.3251 2.37572 -50.7981 -59.2297 57.7098 0.277906 -7.83861 0.0190398 -37.6033 -2.69995 3.88327 6.78182 -16.4496 41.5742 -0.0 0.0 -0.0 11.1306 13.4337 -22.2746 90.2279 -68.2649 -1.32244 0.196836 5.56925 -0.00957391 85.3025 4.46278 8.87998 -10.4454 -31.4803 49.9527 0.0 0.0 0.0 60.1738 -14.2099 -5.62595 -18.2805 0.31214 2.77605 25.6625 27.0517 -3.63537 -25.8115 0.0 0.0 -0.0 0.0 -0.0 23.8516 21.4708 2.79922 -28.1408 -0.110776 -4.27392 40.0856 1.12391 4.89247 37.7577 -0.0 -0.0 0.0 0.0 0.0 
3115.1087195 658.571 -1781.08148406 -26.6644083653 8.87490067455 8.29324032658 9.61716 -0.0167186 0.0235729 9.61716 -0.0181847 0.0224612 9.61715 -0.019153 0.0216415 9.61715 -0.0154948 0.0243947 -9.79662 7.41296 3.86547 -9.79647 11.3243 5.59262 -0.0 0.0 -0.0 1.49857 21.7301 4.6513 -53.2472 -63.2248 49.1869 0.213787 -6.04547 0.0112892 -38.2803 -2.77016 3.93444 7.18329 -19.4698 42.7394 -0.0 0.0 -0.0 10.9879 10.9426 -22.0027 89.5075 -66.5089 5.75477 0.192555 5.44886 -0.00916298 85.0856 4.43677 8.87007 -8.65904 -27.6604 40.6724 0.0 0.0 0.0 55.4927 -15.3451 -4.48042 -24.3007 0.21985 3.6948 26.9768 20.1841 -3.66044 -19.8381 0.0 0.0 -0.0 0.0 -0.0 24.685 25.5333 -1.62461 -40.4165 0.493479 -6.05649 36.9872 -8.34491 4.5936 39.0298 -0.0 -0.0 0.0 0.0 0.0 
3114.68026214 658.571 -1780.84312476 -26.6799899701 9.07133722442 8.39314076891 9.61716 -0.0167186 0.0235729 9.61716 -0.0181847 0.0224612 9.61715 -0.019153 0.0216415 9.61715 -0.0154948 0.0243947 -9.79662 7.41296 3.86547 -9.79647 11.3243 5.59262 -0.0 0.0 -0.0 1.49857 21.7301 4.6513 -53.2472 -63.2248 49.1869 0.213787 -6.04547 0.0112892 -38.2803 -2.77016 3.93444 7.18329 -19.4698 42.7394 -0.0 0.0 -0.0 10.9879 10.9426 -22.0027 89.5075 -66.5089 5.75477 0.192555 5.44886 -0.00916298 85.0856 4.43677 8.87007 -8.65904 -27.6604 40.6724 0.0 0.0 0.0 55.4927 -15.3451 -4.48042 -24.3007 0.21985 3.6948 26.9768 20.1841 -3.66044 -19.8381 0.0 0.0 -0.0 0.0 -0.0 24.685 25.5333 -1.62461 -40.4165 0.493479 -6.05649 36.9872 -8.34491 4.5936 39.0298 -0.0 -0.0 0.0 0.0 0.0 
3114.62611893 658.571 -1780.81285042 -26.6819866818 9.09618848038 8.40578793145 9.61716 -0.0167186 0.0235729 9.61716 -0.0181847 0.0224612 9.61715 -0.019153 0.0216415 9.61715 -0.0154948 0.0243947 -9.79662 7.41296 3.86547 -9.79647 11.3243 5.59262 -0.0 0.0 -0.0 1.49857 21.7301 4.6513 -53.2472 -63.2248 49.1869 0.213787 -6.04547 0.0112892 -38.2803 -2.77016 3.93444 7.18329 -19.4698 42.7394 -0.0 0.0 -0.0 10.9879 10.9426 -22.0027 89.5075 -66.5089 5.75477 0.192555 5.44886 -0.00916298 85.0856 4.43677 8.87007 -8.65904 -27.6604 40.6724 0.0 0.0 0.0 55.4927 -15.3451 -4.48042 -24.3007 0.21985 3.6948 26.9768 20.1841 -3.66044 -19.8381 0.0 0.0 -0.0 0.0 -0.0 24.685 25.5333 -1.62461 -40.4165 0.493479 -6.05649 36.9872 -8.34491 4.5936 39.0298 -0.0 -0.0 0.0 0.0 0.0 
3114.82403326 658.571 -1780.92334754 -26.6747181555 9.00537812846 8.35958278428 9.61716 -0.0167186 0.0235729 9.61716 -0.0181847 0.0224612 9.61715 -0.019153 0.0216415 9.61715 -0.0154948 0.0243947 -9.79662 7.41296 3.86547 -9.79647 11.3243 5.59262 -0.0 0.0 -0.0 1.49857 21.7301 4.6513 -53.2472 -63.2248 49.1869 0.213787 -6.04547 0.0112892 -38.2803 -2.77016 3.93444 7.18329 -19.4698 42.7394 -0.0 0.0 -0.0 10.9879 10.9426 -22.0027 89.5075 -66.5089 5.75477 0.192555 5.44886 -0.00916298 85.0856 4.43677 8.87007 -8.65904 -27.6604 40.6724 0.0 0.0 0.0 55.4927 -15.3451 -4.48042 -24.3007 0.21985 3.6948 26.9768 20.1841 -3.66044 -19.8381 0.0 0.0 -0.0 0.0 -0.0 24.685 25.5333 -1.62461 -40.4165 0.493479 -6.05649 36.9872 -8.34491 4.5936 39.0298 -0.0 -0.0 0.0 0.0 0.0 
3098.81163859 660.83 -1803.59609394 -26.1359670573 9.45021719003 8.35253512872 9.71271 -0.0697194 -0.146225 9.71272 -0.0602735 -0.150365 9.71286 -0.0538713 -0.152775 9.71283 -0.0773232 -0.14235 -11.2427 6.44054 3.37621 -11.2569 9.9693 4.99166 -0.0 0.0 -0.0 2.01289 19.7473 5.27476 -56.3901 -64.072 42.4454 0.331701 -9.33137 0.0270709 -38.633 -2.80697 3.96076 7.27174 -20.5895 42.592 -0.0 0.0 -0.0 10.7016 12.6732 -21.3339 89.931 -65.5335 9.73188 0.182673 5.1708 -0.00824857 85.2651 4.45829 8.87828 -7.87731 -27.498 35.0507 0.0 0.0 0.0 54.3946 -14.5846 -3.02827 -25.6831 0.185062 3.90409 28.6203 18.8768 -3.8304 -17.8835 0.0 0.0 -0.0 0.0 -0.0 25.404 27.4229 -3.20508 -43.3369 0.692588 -6.45898 38.0092 -11.3352 4.7079 39.7333 -0.0 -0.0 0.0 0.0 0.0 
3098.5720074 660.83 -1803.45626671 -26.1435045943 9.54203739995 8.39822243143 9.71271 -0.0697194 -0.146225 9.71272 -0.0602735 -0.150365 9.71286 -0.0538713 -0.152775 9.71283 -0.0773232 -0.14235 -11.2427 6.44054 3.37621 -11.2569 9.9693 4.99166 -0.0 0.0 -0.0 2.01289 19.7473 5.27476 -56.3901 -64.072 42.4454 0.331701 -9.33137 0.0270709 -38.633 -2.80697 3.96076 7.27174 -20.5895 42.592 -0.0 0.0 -0.0 10.7016 12.6732 -21.3339 89.931 -65.5335 9.73188 0.182673 5.1708 -0.00824857 85.2651 4.45829 8.87828 -7.87731 -27.498 35.0507 0.0 0.0 0.0 54.3946 -14.5846 -3.02827 -25.6831 0.185062 3.90409 28.6203 18.8768 -3.8304 -17.8835 0.0 0.0 -0.0 0.0 -0.0 25.404 27.4229 -3.20508 -43.3369 0.692588 -6.45898 38.0092 -11.3352 4.7079 39.7333 -0.0 -0.0 0.0 0.0 0.0 
